<svg width="98" height="46" viewBox="0 0 98 46" fill="none" xmlns="http://www.w3.org/2000/svg">
<path d="M10.6546 3.50356V16.4583C10.6546 16.4583 15.2763 16.4583 17.7499 16.2729C19.6951 15.9365 20.0531 15.7511 20.4111 13.8298L21.1272 11.0159H23.2427L22.8847 17.1656L23.0724 23.4661H20.9395L20.4111 21.0058C19.8828 19.2549 19.1667 18.8992 17.7499 18.731C15.9771 18.5456 10.6546 18.5456 10.6546 18.5456V29.4109C10.6546 31.5003 11.7287 32.3929 14.2022 32.3929H21.6556C23.9588 32.3929 26.2599 32.2076 27.6942 28.8891L29.6219 24.6779H31.4121C31.2244 25.5534 30.338 33.2685 30.1677 35.0044C30.1677 35.0044 23.4305 34.836 20.5989 34.836H7.82302L0.199379 35.0044V33.1001L2.67291 32.5612C4.46311 32.2076 4.99143 31.6857 4.99143 30.2863C4.99143 30.2863 5.17918 25.5534 5.17918 17.6679C5.17918 9.80195 4.99143 5.06682 4.99143 5.06682C4.99143 3.49921 4.46311 3.1456 2.67291 2.79198L0.199379 2.27448V0.353259L7.65273 0.504196H21.8433C24.6749 0.504196 29.4495 -0.000366211 29.4495 -0.000366211C29.4495 -0.000366211 29.2792 2.96448 29.0914 9.97231H27.1462L26.4301 7.51201C25.7315 4.36174 24.6727 2.79413 22.7122 2.79413H11.5584C10.6546 2.79629 10.6546 2.96448 10.6546 3.50356ZM39.3763 4.8857H41.5093V12.2471L48.7924 11.8935L48.4343 15.2292L41.3389 14.6902V27.6622C41.3389 31.3343 42.5834 32.7488 44.7165 32.7488C46.6441 32.7488 48.0763 31.6879 48.6044 30.8124L49.6611 32.0415C48.6044 34.4846 45.6027 35.7135 42.7535 35.7135C39.2236 35.7135 36.357 33.6244 36.357 29.5985V14.8734H32.126V13.1226C35.6759 12.7689 38.3196 10.6623 39.3763 4.8857ZM54.641 27.4746L56.0557 30.8103C56.5842 32.2076 57.8284 33.6244 60.6601 33.6244C63.6793 33.6244 64.9239 32.0415 64.9239 30.1203C64.9239 24.1561 53.0364 25.9091 53.0364 17.8556C53.0364 13.308 56.7543 11.1841 61.5463 11.1841C63.6793 11.1841 66.869 11.5377 68.4713 12.245C68.1132 13.9959 67.9256 16.2707 67.9256 18.0237L66.1681 18.1919L64.9239 14.688C64.5658 13.8298 63.1337 13.1204 61.3761 13.1204C59.2431 13.1204 57.1123 13.9959 57.1123 16.2707C57.1123 21.6958 69.3578 20.4819 69.3578 28.5354C69.3578 33.1001 65.2819 35.5433 60.302 35.5433C56.5842 35.5433 52.8485 34.1288 52.8485 34.1288C53.2066 32.0393 53.0364 29.7667 52.8485 27.4746H54.641ZM68.4735 44.2868C69.002 42.3656 69.3601 39.9248 69.7181 37.6327L71.6632 37.4644L72.3793 41.1367C72.5494 42.012 73.0779 42.7193 74.4949 42.7193C76.798 42.7193 79.8173 41.322 82.6641 36.4189C81.4024 33.4365 77.6842 23.8176 74.307 16.4561C73.4208 14.5198 73.2503 14.3495 72.0213 13.9959L71.1173 13.6595V11.8914L76.4552 12.0768L83.0047 11.7232V13.4762L81.4024 13.8298C80.1579 13.998 79.6449 14.688 79.6449 15.3974C79.6449 15.5829 79.6449 15.7511 79.815 16.1047C80.1556 17.1656 83.0047 25.0337 85.1377 30.2885C86.8953 26.6164 90.2726 18.3795 90.8007 16.9801C90.9886 16.2729 91.1588 16.1047 91.1588 15.5829C91.1588 14.6902 90.6306 14.1684 89.4016 13.832L88.1395 13.4762V11.7253L93.1194 11.8935L97.7238 11.7253V13.4762L96.8373 14.1662C95.0645 14.8734 94.8769 15.0416 94.1761 16.4561L86.382 34.4801C81.7605 44.8238 76.9682 45.6994 73.6061 45.6994C71.4753 45.7013 69.873 45.1624 68.4735 44.2868Z" fill="#FB6F20"/>
</svg>
