<svg width="155" height="46" viewBox="0 0 155 46" fill="none" xmlns="http://www.w3.org/2000/svg">
<path d="M23.2498 0.0758057C10.4487 0.0758057 0.0709076 10.3417 0.0709076 23.0052C0.0709076 35.6692 10.4487 45.9342 23.2498 45.9342C36.0523 45.9342 46.4289 35.6692 46.4289 23.0052C46.4289 10.3426 36.0523 0.076901 23.2495 0.076901L23.2498 0.0758057ZM33.8794 33.1465C33.4644 33.8202 32.5732 34.0336 31.8921 33.6203C26.45 30.3318 19.599 29.587 11.5307 31.4106C10.7532 31.5858 9.97819 31.1039 9.80103 30.3345C9.62307 29.5651 10.1083 28.7984 10.8877 28.6232C19.7172 26.6277 27.2908 27.4869 33.4005 31.1806C34.0815 31.594 34.2976 32.4728 33.8794 33.1465ZM36.7165 26.9031C36.1934 27.7443 35.0806 28.0099 34.231 27.4924C28.0005 23.7039 18.5032 22.6068 11.1337 24.8197C10.178 25.1053 9.16857 24.5724 8.87849 23.6286C8.59064 22.6832 9.12956 21.6865 10.0836 21.399C18.5015 18.8723 28.9665 20.0962 36.1214 24.4457C36.9713 24.9632 37.2396 26.0639 36.7165 26.9034V26.9031ZM36.96 20.4018C29.4896 16.0124 17.1644 15.6087 10.0319 17.7502C8.88653 18.0939 7.6753 17.4542 7.32823 16.3212C6.98113 15.1876 7.62716 13.9903 8.77332 13.6458C16.9609 11.187 30.5719 11.6621 39.1726 16.713C40.205 17.3179 40.5428 18.6341 39.9312 19.6518C39.3221 20.6709 37.9882 21.0069 36.9613 20.4018H36.96ZM63.133 21.2429C59.1305 20.2988 58.4191 19.6362 58.4191 18.2439C58.4191 16.9285 59.6704 16.0433 61.533 16.0433C63.3378 16.0433 65.1258 16.7155 67.0022 18.0993C67.0578 18.1412 67.1298 18.1579 67.1989 18.1469C67.2709 18.1366 67.3316 18.0985 67.3733 18.0413L69.3272 15.3163C69.4076 15.2041 69.3854 15.0494 69.2775 14.9636C67.0439 13.1913 64.5306 12.3296 61.5911 12.3296C57.2705 12.3296 54.2509 14.8949 54.2509 18.5654C54.2509 22.5014 56.8555 23.895 61.356 24.9709C65.1839 25.8435 65.8317 26.5745 65.8317 27.8812C65.8317 29.3296 64.5251 30.2304 62.4217 30.2304C60.0854 30.2304 58.1785 29.4501 56.0473 27.6265C55.9946 27.58 55.9226 27.5608 55.8561 27.5635C55.7844 27.569 55.7205 27.6019 55.6763 27.6539L53.4843 30.2332C53.3929 30.3427 53.4039 30.5015 53.5092 30.5946C55.9892 32.7852 59.0391 33.9407 62.3329 33.9407C66.9887 33.9407 69.9973 31.4243 69.9973 27.5279C70.0054 24.2403 68.0155 22.4195 63.1411 21.2465L63.133 21.2429ZM80.5318 17.3384C78.5139 17.3384 76.8586 18.1248 75.4914 19.7361V17.9224C75.4914 17.7792 75.3751 17.6626 75.2311 17.6626H71.6467C71.503 17.6626 71.3868 17.7792 71.3868 17.9224V38.0752C71.3868 38.2174 71.503 38.3353 71.6467 38.3353H75.2311C75.3751 38.3353 75.4914 38.2174 75.4914 38.0752V31.7145C76.8586 33.2286 78.5139 33.9707 80.5318 33.9707C84.2822 33.9707 88.0797 31.1149 88.0797 25.6554C88.0851 20.1948 84.2876 17.3381 80.5344 17.3381L80.5318 17.3384ZM83.9111 25.6554C83.9111 28.4343 82.1813 30.3756 79.7012 30.3756C77.2519 30.3756 75.4029 28.3466 75.4029 25.6554C75.4029 22.9638 77.2519 20.9354 79.7012 20.9354C82.1399 20.9352 83.9111 22.9197 83.9111 25.6551V25.6554ZM97.8085 17.3384C92.9786 17.3384 89.195 21.0173 89.195 25.7148C89.195 30.3619 92.9538 34.0007 97.7504 34.0007C102.597 34.0007 106.392 30.3345 106.392 25.6554C106.392 20.9921 102.622 17.3389 97.8085 17.3389V17.3384ZM97.8085 30.4029C95.24 30.4029 93.3025 28.3603 93.3025 25.654C93.3025 22.9354 95.1738 20.9625 97.7504 20.9625C100.336 20.9625 102.284 23.0044 102.284 25.7134C102.284 28.4315 100.402 30.4029 97.8085 30.4029ZM116.705 17.6626H112.76V13.6743C112.76 13.5314 112.644 13.4147 112.501 13.4147H108.916C108.772 13.4147 108.653 13.5314 108.653 13.6743V17.6626H106.932C106.788 17.6626 106.671 17.7792 106.671 17.9224V20.9691C106.671 21.1121 106.788 21.2289 106.932 21.2289H108.653V29.1133C108.653 32.2978 110.256 33.9132 113.419 33.9132C114.703 33.9132 115.769 33.6503 116.774 33.0861C116.857 33.0424 116.907 32.9549 116.907 32.8619V29.9594C116.907 29.8718 116.86 29.7869 116.782 29.7403C116.705 29.691 116.608 29.6883 116.528 29.7294C115.839 30.0716 115.171 30.2304 114.424 30.2304C113.276 30.2304 112.76 29.7129 112.76 28.5575V21.2303H116.705C116.849 21.2303 116.965 21.1137 116.965 20.9705V17.9241C116.97 17.7809 116.854 17.6642 116.708 17.6642L116.705 17.6626ZM130.444 17.6782V17.1884C130.444 15.7473 131.004 15.1047 132.255 15.1047C133.002 15.1047 133.602 15.2514 134.275 15.4732C134.358 15.4989 134.444 15.4861 134.511 15.4371C134.58 15.3881 134.618 15.3095 134.618 15.2262V12.239C134.618 12.1248 134.546 12.0238 134.433 11.9901C133.724 11.7812 132.817 11.5668 131.455 11.5668C128.147 11.5668 126.395 13.4106 126.395 16.897V17.6473H124.674C124.53 17.6473 124.41 17.7639 124.41 17.9068V20.9691C124.41 21.1121 124.53 21.2289 124.674 21.2289H126.395V33.3874C126.395 33.5327 126.514 33.6477 126.658 33.6477H130.24C130.386 33.6477 130.503 33.5327 130.503 33.3874V21.2298H133.849L138.975 33.3874C138.394 34.6636 137.821 34.9182 137.04 34.9182C136.409 34.9182 135.742 34.7319 135.064 34.3623C135 34.3294 134.923 34.324 134.856 34.3432C134.787 34.3678 134.729 34.417 134.701 34.4828L133.486 37.1195C133.428 37.2453 133.478 37.3907 133.6 37.4562C134.867 38.1353 136.01 38.4257 137.425 38.4257C140.071 38.4257 141.535 37.2044 142.822 33.9241L149.039 18.0331C149.072 17.9531 149.061 17.8627 149.011 17.7918C148.964 17.7214 148.884 17.679 148.798 17.679H145.067C144.954 17.679 144.854 17.7494 144.818 17.8532L140.995 28.6506L136.81 17.8461C136.772 17.7456 136.675 17.679 136.567 17.679H130.444V17.6782ZM122.479 17.6626H118.894C118.75 17.6626 118.631 17.7792 118.631 17.9224V33.3874C118.631 33.5327 118.75 33.6477 118.894 33.6477H122.479C122.622 33.6477 122.742 33.5327 122.742 33.3874V17.9235C122.742 17.7803 122.625 17.6637 122.479 17.6637V17.6626ZM120.707 10.6205C119.287 10.6205 118.136 11.7574 118.136 13.1617C118.136 14.5669 119.287 15.7051 120.707 15.7051C122.127 15.7051 123.276 14.5669 123.276 13.1617C123.276 11.7576 122.124 10.6205 120.707 10.6205ZM152.1 22.6352C150.683 22.6352 149.578 21.5085 149.578 20.1403C149.578 18.7721 150.697 17.6325 152.114 17.6325C153.531 17.6325 154.635 18.7589 154.635 20.1261C154.635 21.4943 153.517 22.6352 152.1 22.6352ZM152.114 17.8805C150.821 17.8805 149.844 18.8964 149.844 20.1403C149.844 21.3837 150.816 22.3858 152.1 22.3858C153.393 22.3858 154.37 21.3708 154.37 20.1261C154.37 18.8827 153.398 17.8805 152.114 17.8805ZM152.673 20.3826L153.387 21.3705H152.784L152.142 20.4642H151.591V21.3705H151.087V18.7518H152.266C152.884 18.7518 153.288 19.0631 153.288 19.5872C153.29 20.0165 153.039 20.2789 152.676 20.3826H152.673ZM152.247 19.2011H151.591V20.0294H152.247C152.574 20.0294 152.77 19.8709 152.77 19.6149C152.77 19.3454 152.574 19.2011 152.247 19.2011Z" fill="#1ED760"/>
</svg>
